<svg style="position: absolute; width: 0; height: 0;" width="0" height="0" version="1.1" xmlns="http://www.w3.org/2000/svg" xmlns:xlink="http://www.w3.org/1999/xlink"><defs><symbol id="facebook_facebook55" viewBox="0 -212 1024 1024"><path d="M531 -150 l-120 0 q-102 2 -161 62 q-60 61 -61 166 l0 105 l-120 0 q-18 1 -19 18 l0 152 q1 18 19 19 l120 0 l0 383 q2 18 19 19 l157 0 q17 -1 19 -19 l0 -383 l141 0 q17 -1 19 -19 l0 -152 q0 -7 -6 -13 q-5 -5 -13 -5 l-141 0 l0 -89 q-1 -32 12 -48 q13 -16 54 -16 l81 0 q17 -2 18 -19 l0 -142 q-1 -17 -18 -19 l0 0 Z"></path></symbol><symbol id="twitter45" viewBox="0 -212 1024 1024"><path d="M1122 79.33 q-10 -13 -25 -9 q-26 7 -67 13 q37 -19 59 -40 q11 -13 2 -28 q-11 -14 -28 -7 q-39 18 -83 18 q-42 -80 -90 -115 q-47 -35 -54 -35 q-83 -37 -154 -22 q-95 26 -136 114 q-42 89 -29 185 q-28 2 -145 -26 q-118 -28 -289 -120 q-11 -6 -22 0 q-11 6 -11 19 q8 99 69 150 q62 52 107 67 q-18 2 -45 0 q-15 1 -22 16 q-3 15 9 25 q55 36 109 47 q-12 1 -24 1 q-16 2 -21 17 q-3 16 11 25 q24 15 62 28 q36 13 80 14 l3 0 q-9 3 -21 6 l-7 2 q-15 4 -17 20 q0 16 15 23 q64 20 115 8 q9 -2 18 -5 q5 30 -33 92 q-39 62 -178 99 l-3 0 q-19 5 -69 6 q-20 0 -40 -1 q-18 0 -23 16 q-3 17 12 25 q111 52 240 56 q70 0 138 -15 q123 -28 237 -104 q2 -1 4 -3 q162 -111 235 -307 q30 -99 20 -176 q57 -18 89 -52 q10 -13 2 -27 l0 0 Z"></path></symbol><symbol id="weibo" viewBox="0 -212 1024 1024"><path d="M475 551.22 q-14 22 -39 30 q-26 9 -47 -1 q-22 -10 -27 -33 q-6 -21 8 -42 q13 -21 38 -29 q24 -8 46 0 q22 10 28 32 q6 22 -7 43 l0 0 ZM534 475.22 q-4 8 -13 11 q-10 4 -19 1 q-19 -9 -8 -28 q4 -9 14 -12 q9 -3 18 0 q8 3 11 11 q2 9 -3 17 l0 0 ZM644 542.22 q28 -63 -1 -120 q-31 -57 -100 -75 q-67 -17 -133 12 q-66 29 -95 88 q-30 60 -4 118 q25 58 92 79 q70 23 141 -7 q72 -30 100 -95 l0 0 ZM840 442.22 q9 92 -83 166 q-92 75 -233 89 q-92 9 -172 -13 q-82 -22 -132 -68 q-50 -47 -56 -108 q-9 -92 84 -166 q92 -75 232 -89 q92 -9 173 13 q81 22 131 69 q51 46 56 107 l0 0 ZM1034 444.22 q0 -40 -21 -73 q-21 -33 -50 -52 q-29 -18 -65 -29 q-8 -3 -11 -4 q-3 -1 -7 -5 q-5 -3 -3 -7 q1 -5 3 -13 q28 -73 0 -112 q-29 -39 -97 -39 q-67 0 -155 38 l-4 1 q-3 1 -8 2 q-5 1 -9 0 q-5 0 -7 -4 q-1 -4 1 -13 q28 -91 -12 -131 q-47 -47 -155 -5 q-109 42 -216 149 q-80 81 -124 162 q-44 82 -44 155 q0 68 41 125 q41 58 108 95 q67 38 151 59 q85 21 174 21 q88 0 170 -19 q82 -20 143 -53 q60 -32 106 -74 q45 -41 68 -86 q23 -45 23 -88 l0 0 ZM924 10.22 q-37 -12 -75 -4 q-15 4 -23 16 q-8 13 -5 29 q2 15 16 23 q13 8 28 5 q40 -8 67 22 q28 30 16 70 q-5 14 2 28 q7 13 21 18 q15 5 29 -2 q13 -7 18 -21 q12 -36 4 -75 q-8 -38 -34 -68 q-27 -29 -64 -41 l0 0 ZM1102 -50.78 q-55 -62 -131 -86 q-76 -23 -154 -6 q-17 3 -27 18 q-10 15 -6 33 q4 17 19 27 q15 10 32 6 q55 -11 109 5 q55 17 94 60 q39 43 50 100 q11 57 -6 108 q-5 17 3 33 q8 16 25 21 q17 6 33 -2 q16 -8 21 -25 q25 -73 9 -153 q-16 -79 -71 -139 l0 0 Z"></path></symbol><symbol id="homefill" viewBox="0 -212 1024 1024"><path d="M962 177 l0 0 l0 0 q10 8 11 20 q1 12 -6 23 l0 0 q-5 5 -11 8 q-7 3 -13 3 q-11 0 -19 -6 l-14 -11 l0 372 l0 0 q-1 42 -22 66 q-22 25 -59 26 l-612 0 l0 0 q-38 -1 -69 -27 q-32 -25 -34 -65 l0 -371 l-13 10 l0 0 q-10 8 -22 6 q-12 -1 -21 -11 q-8 -11 -6 -23 q1 -12 11 -20 l388 -307 l0 0 q27 -20 60 -20 q33 0 60 20 l391 307 l0 0 ZM604 552 l0 0 l0 -107 l0 0 q0 -28 -23 -50 q-22 -23 -69 -24 q-47 1 -69 23 q-23 23 -23 51 l0 107 l0 64 l61 0 l61 0 l62 0 l0 -64 l0 0 Z"></path></symbol><symbol id="xiangxia" viewBox="0 -212 1024 1024"><path d="M90 -150 l326 326 l326 -326 l40 39 l-366 366 l-366 -366 l40 -39 l0 0 Z"></path></symbol><symbol id="comment" viewBox="0 -212 1024 1024"><path d="M466 650 l0 0 l0 0 q13 0 23 -9 l86 -87 l211 0 l0 0 q41 -1 68 -28 q27 -27 28 -68 l0 -512 l0 0 q-1 -41 -28 -68 q-27 -27 -68 -28 l-640 0 l0 0 q-41 1 -68 28 q-27 27 -28 68 l0 512 l0 0 q1 41 28 68 q27 27 68 28 l96 0 l0 0 q14 0 23 -9 q9 -9 9 -23 q0 -14 -9 -23 q-9 -9 -23 -9 l-96 0 l0 0 q-14 0 -23 -9 q-9 -9 -9 -23 l0 -512 l0 0 q0 -14 9 -23 q9 -9 23 -9 l640 0 l0 0 q14 0 23 9 q9 9 9 23 l0 512 l0 0 q0 14 -9 23 q-9 9 -23 9 l-224 0 l0 0 q-13 0 -23 9 l-73 74 l-73 -74 l0 0 q-10 -9 -23 -9 q-13 0 -23 9 q-9 10 -9 23 q0 13 9 23 l96 96 l0 0 q10 9 23 9 l0 0 ZM290 234 l0 0 l0 0 q20 -1 34 -15 q13 -13 14 -33 q-1 -20 -14 -34 q-14 -13 -34 -14 q-20 1 -33 14 q-14 14 -15 34 q1 20 15 33 q13 14 33 15 l0 0 ZM482 234 l0 0 l0 0 q20 -1 34 -15 q13 -13 14 -33 q-1 -20 -14 -34 q-14 -13 -34 -14 q-20 1 -33 14 q-14 14 -15 34 q1 20 15 33 q13 14 33 15 l0 0 ZM674 234 l0 0 l0 0 q20 -1 34 -15 q13 -13 14 -33 q-1 -20 -14 -34 q-14 -13 -34 -14 q-20 1 -33 14 q-14 14 -15 34 q1 20 15 33 q13 14 33 15 l0 0 Z"></path></symbol><symbol id="xiangshang" viewBox="0 -212 1024 1024"><path d="M742 255 l-326 -326 l-326 326 l-40 -40 l366 -365 l366 365 l-40 40 l0 0 Z"></path></symbol><symbol id="left148" viewBox="0 -212 1024 1024"><path d="M142 312 l0 0 l424 -387 q22 -26 0 -53 q-27 -22 -54 0 l-450 411 q-12 13 -11 29 q-1 16 11 29 l450 411 q27 22 54 0 q22 -27 0 -53 l-424 -387 l0 0 Z"></path></symbol><symbol id="right154" viewBox="0 -212 1024 1024"><path d="M577 283 l0 0 l-451 -411 q-27 -22 -54 0 q-22 27 0 53 l424 387 l-424 387 q-22 26 0 53 q27 22 54 0 l451 -411 q12 -13 11 -29 q1 -16 -11 -29 l0 0 Z"></path></symbol><symbol id="github" viewBox="0 -212 1024 1024"><path d="M286 -84.82 q-109 64 -173 172 q-63 109 -63 237 q0 155 90 278 q90 123 233 171 q17 3 25 -5 q8 -7 8 -18 l0 -34 q-1 -31 -1 -54 l-14 2 q-14 3 -34 2 q-21 0 -43 -4 q-22 -4 -41 -18 q-19 -15 -27 -38 l-7 -14 q-6 -14 -19 -31 q-13 -18 -27 -24 l-4 -3 q-4 -3 -8 -7 q-4 -5 -6 -9 q-1 -4 4 -7 q4 -3 17 -3 l13 2 q12 3 30 15 q18 12 30 32 q14 25 34 38 q20 13 40 13 q21 0 36 -3 q14 -3 27 -9 q6 -41 30 -63 q-35 -4 -62 -11 q-29 -8 -58 -24 q-30 -17 -50 -41 q-20 -25 -32 -65 q-13 -40 -13 -92 q0 -74 49 -127 q-23 -56 5 -126 q17 -5 52 8 q35 15 52 24 q16 10 25 17 q58 -16 118 -16 q61 0 119 16 l23 -15 q24 -14 57 -27 q32 -12 49 -7 q28 70 5 126 q49 53 49 127 q0 52 -12 92 q-13 41 -33 65 q-20 24 -50 41 q-30 16 -58 24 q-28 7 -63 11 q32 28 32 87 l0 83 q-1 45 -1 47 q0 11 8 18 q8 8 25 5 q143 -48 233 -171 q90 -123 90 -278 q0 -128 -63 -237 q-64 -108 -172 -172 q-109 -63 -238 -63 q-128 0 -236 63 l0 0 ZM229 530.18 q-2 5 -8 2 q-6 -3 -4 -8 q2 -3 8 -1 q6 3 4 7 l0 0 ZM248 551.18 q-4 5 -10 -2 q-5 -6 -1 -9 q4 -4 10 1 q5 7 1 10 l0 0 ZM267 579.18 q-5 4 -11 -4 q-5 -8 0 -11 q6 -5 11 3 q5 8 0 12 l0 0 ZM292 605.18 q-5 5 -12 -2 q-8 -7 -2 -12 q5 -5 12 2 q7 7 2 12 l0 0 ZM327 620.18 q-2 8 -11 4 q-11 -3 -8 -9 q2 -7 11 -5 q10 3 8 10 l0 0 ZM366 623.18 q0 7 -10 7 q-10 1 -10 -7 q0 -7 10 -7 q10 -1 10 7 l0 0 ZM402 617.18 q1 6 -9 9 q-10 2 -11 -5 q-1 -8 9 -9 q10 -2 11 5 l0 0 Z"></path></symbol><symbol id="folder173" viewBox="0 -212 1024 1024"><path d="M859 -35 l0 0 l-405 0 q-10 -105 -115 -115 l-173 0 q-106 10 -116 115 l0 693 q10 106 116 116 l693 0 q105 -10 115 -116 l0 -577 q-10 -106 -115 -116 l0 0 ZM916 658 l0 0 q-4 54 -57 58 l-693 0 q-54 -5 -58 -58 l0 -462 l808 0 l0 462 l0 0 ZM916 139 l0 0 l-808 0 l0 -174 q4 -53 58 -57 l173 0 q53 4 58 57 l0 58 l462 0 q53 6 57 58 l0 58 l0 0 Z"></path></symbol><symbol id="heart" viewBox="0 -212 1024 1024"><path d="M615 763 l375 -361 q138 -138 138 -270 q0 -133 -76 -207 q-77 -75 -212 -75 q-37 0 -75 13 q-39 13 -73 35 q-33 22 -57 41 q-24 19 -46 41 q-22 -22 -46 -41 q-24 -19 -57 -41 q-34 -22 -72 -35 q-39 -13 -76 -13 q-135 0 -212 75 q-76 74 -76 207 q0 40 14 83 q14 42 32 72 q18 30 41 59 q23 29 34 39 q10 11 16 16 l376 362 q10 11 26 11 q16 0 26 -11 l0 0 Z"></path></symbol><symbol id="bookmark30" viewBox="0 -212 1024 1024"><path d="M552 -69.44 q-5 -57 -41 -70 q-37 -13 -42 -10 l-335 0 q-5 -3 -42 10 q-37 13 -42 70 l0 841 l251 -240 l251 240 l0 -841 l0 0 Z"></path></symbol><symbol id="shouji" viewBox="0 -212 1024 1024"><path d="M667 647 l0 0 l0 -675 q0 -25 -10 -48 q-10 -22 -27 -39 q-18 -16 -41 -26 q-24 -9 -52 -9 l-357 0 q-28 0 -51 9 q-24 10 -41 26 q-18 17 -28 39 q-10 23 -10 48 l0 675 q0 25 10 47 q10 22 28 38 q17 17 41 26 q23 10 51 10 l357 0 q28 0 52 -10 q23 -9 41 -26 q17 -16 27 -38 q10 -22 10 -47 l0 0 ZM586 20 l0 0 l0 578 l-456 0 l0 -578 l456 0 l0 0 ZM358 626 l0 0 q22 0 37 15 q15 15 15 37 q0 22 -15 37 q-15 16 -37 16 q-21 0 -36 -16 q-16 -15 -16 -37 q0 -22 16 -37 q15 -15 36 -15 l0 0 ZM439 -65 l0 0 q0 8 -5 12 q-5 5 -12 5 l-128 0 q-6 0 -11 -5 q-5 -4 -5 -12 q0 -8 6 -13 q5 -4 10 -4 l128 0 q7 0 12 4 q5 5 5 13 l0 0 Z"></path></symbol><symbol id="weixin" viewBox="0 -212 1024 1024"><path d="M637 228 q16 0 32 2 q-25 -103 -116 -168 q-92 -65 -216 -67 q-139 3 -232 83 q-93 79 -97 202 q1 69 35 125 q35 57 97 101 l-33 100 l115 -58 q30 6 57 11 q28 5 58 6 q15 -1 31 -2 q-10 -33 -10 -70 q2 -112 81 -187 q78 -75 198 -78 l0 0 ZM460 137 q19 1 30 12 q11 11 11 30 q0 19 -11 31 q-11 11 -30 11 q-19 0 -33 -12 q-15 -11 -16 -30 q1 -19 16 -30 q14 -11 33 -12 l0 0 ZM230 221 q-19 0 -33 -12 q-15 -11 -16 -30 q1 -19 16 -30 q14 -11 33 -12 q19 1 30 12 q11 11 11 30 q0 19 -11 30 q-11 12 -30 12 l0 0 ZM937 489 q-4 -103 -84 -172 q-81 -68 -195 -71 q-120 3 -199 71 q-78 69 -81 172 q3 103 81 172 q79 68 199 71 q24 0 49 -5 q25 -5 49 -12 l91 50 l-25 -83 q50 -38 82 -87 q32 -49 33 -106 l0 0 ZM567 447 q-13 0 -22 -10 q-10 -10 -11 -23 q1 -13 11 -23 q9 -10 22 -11 q19 1 30 11 q11 10 11 23 q0 13 -11 23 q-11 10 -30 10 l0 0 ZM748 447 q-13 0 -23 -10 q-9 -10 -10 -23 q1 -13 10 -23 q10 -10 23 -11 q19 1 30 11 q11 10 11 23 q0 13 -11 23 q-11 10 -30 10 l0 0 Z"></path></symbol><symbol id="link" viewBox="0 -212 1024 1024"><path d="M865 530 q0 22 -15 38 l-84 82 q-16 15 -38 15 q-23 0 -39 -15 l-116 -117 q-16 -16 -16 -39 q0 -24 18 -41 l11 11 q9 9 12 11 q4 4 11 9 q7 6 15 7 q6 3 15 3 q23 0 38 -16 q16 -16 16 -39 q0 -8 -1 -16 q-3 -6 -8 -14 q-5 -7 -8 -11 l-13 -12 q-9 -8 -11 -10 q17 -18 41 -18 q23 0 39 16 l118 117 q15 16 15 39 l0 0 ZM467 131 q0 23 -18 41 q-2 -2 -11 -11 l-12 -12 q-3 -3 -11 -9 q-7 -5 -14 -7 q-7 -2 -16 -2 q-22 0 -38 16 q-16 16 -16 39 q0 8 2 15 q2 7 8 15 q5 7 8 10 q3 4 12 12 l11 11 q-17 18 -41 18 q-23 0 -39 -16 l-117 -118 q-16 -15 -16 -38 q0 -22 16 -38 l83 -83 q16 -15 38 -15 q23 0 39 16 l116 117 q16 16 16 39 l0 0 ZM927 414 l-118 -117 q-48 -48 -116 -48 q-69 0 -118 50 l-49 -50 q49 -49 49 -118 q0 -68 -47 -115 l-116 -117 q-47 -49 -116 -49 q-68 0 -115 47 l-83 83 q-48 47 -48 115 q0 68 48 115 l117 118 q48 48 116 48 q69 0 118 -50 l49 50 q-49 49 -49 118 q0 68 47 115 l116 117 q47 48 116 48 q68 0 115 -47 l83 -82 q48 -47 48 -115 q0 -68 -47 -116 l0 0 Z"></path></symbol><symbol id="email65" viewBox="0 -212 1024 1024"><path d="M1321 -35 l0 -115 l-1271 0 l0 115 l635 520 l636 -520 l0 0 ZM1321 681 l0 -632 l-321 278 l321 354 l0 0 ZM50 774 l1271 0 l-377 -404 l-259 215 l-260 -215 l-375 404 l0 0 ZM50 45 l0 628 l312 -347 l-312 -281 l0 0 Z"></path></symbol></defs></svg>